<svg xmlns="http://www.w3.org/2000/svg" style='fill: lightgrey;' viewBox="0 0 50 50" width="50px" height="50px"><path d="M 13.599609 4 C 8.8620649 4 5 7.8620649 5 12.599609 L 5 30.599609 L 5 31.400391 L 5 38.400391 C 5 43.137935 8.8620649 47 13.599609 47 L 36.400391 47 C 41.137935 47 45 43.137935 45 38.400391 L 45 31.400391 L 45 30.599609 L 45 12.599609 C 45 7.8620649 41.137935 4 36.400391 4 L 13.599609 4 z M 25.341797 13.707031 C 28.681797 13.707031 31.284813 15.805375 31.757812 18.859375 L 29.746094 18.859375 C 29.219094 16.816375 27.528797 15.53125 25.341797 15.53125 C 22.298797 15.53125 20.386719 18.036672 20.386719 22.013672 C 20.386719 25.991672 22.297563 28.484375 25.351562 28.484375 C 27.560563 28.484375 29.241094 27.352578 29.746094 25.517578 L 31.757812 25.517578 C 31.230813 28.428578 28.726516 30.308594 25.353516 30.308594 C 21.046516 30.308594 18.353516 27.120672 18.353516 22.013672 C 18.353516 16.894672 21.034797 13.707031 25.341797 13.707031 z M 7 36.902344 C 8.5794631 38.792759 10.952573 40 13.599609 40 L 36.400391 40 C 39.047427 40 41.420537 38.792759 43 36.902344 L 43 38.400391 C 43 42.056846 40.056846 45 36.400391 45 L 13.599609 45 C 9.9431546 45 7 42.056846 7 38.400391 L 7 36.902344 z"/></svg>
